<svg width="512" height="512" viewBox="0 0 512 512" fill="none" xmlns="http://www.w3.org/2000/svg">
<path d="M272 295.619C272 295.619 253.047 343.58 253.047 384C252.879 343.58 232 295.619 232 295.619C244.432 290.735 253.047 264.497 253.047 264.497V264C253.047 264 259.568 290.735 272 295.619Z" fill="url(#paint0_linear_67_21)"/>
<path d="M277.804 293.798C279.993 287.038 287.289 267.338 307.887 252.715C331.6 235.857 356.661 237.237 363.256 237.789C368.139 237.402 374.902 236.271 382.226 232.988C396.763 226.504 404.564 215.606 407.707 210.584C407.707 210.584 394.658 304.006 303.397 302.958C298.514 303.041 293.631 303.123 288.748 303.206C277.663 304.31 273.847 307.455 272.528 310.269C272.051 311.29 271.714 312.615 271.742 312.615C271.77 312.615 275.025 302.544 277.86 293.77L277.804 293.798Z" fill="#DA384C"/>
<path d="M223.277 291.701C221.089 284.941 213.792 265.241 193.194 250.618C169.481 233.76 144.42 235.14 137.826 235.692C132.943 235.306 126.179 234.174 118.855 230.891C104.318 224.407 96.5168 213.509 93.3738 208.487C93.3738 208.487 106.423 301.909 197.684 300.861C202.567 300.944 207.45 301.027 212.333 301.109C223.418 302.213 227.234 305.358 228.553 308.173C229.03 309.193 229.367 310.518 229.339 310.518C229.311 310.518 226.056 300.447 223.221 291.673L223.277 291.701Z" fill="#DA384C"/>
<path d="M32 96C32 96 51.8686 120.583 99.239 130.544L140.744 193.34L188.648 206.418C185.813 201.176 182.979 195.961 180.145 190.719C187.609 195.961 195.046 201.176 202.511 206.418C202.511 206.418 234.446 194.388 252.014 256.136L155.14 227.359L105.637 210.612L77.9672 160.369C77.9672 160.369 48.3327 157.748 32.0281 96H32Z" fill="url(#paint1_linear_67_21)"/>
<path d="M472.001 96C472.001 96 452.132 120.583 404.762 130.544L363.256 193.34L315.353 206.418C318.187 201.176 321.022 195.961 323.856 190.719C316.391 195.961 308.954 201.176 301.49 206.418C301.49 206.418 269.554 194.388 251.987 256.136L348.86 227.359L398.363 210.612L426.033 160.369C426.033 160.369 455.668 157.748 471.972 96H472.001Z" fill="url(#paint2_linear_67_21)"/>
<path d="M411.328 200.651C414.779 215.523 419.27 244.3 410.261 278.457C403.414 304.42 391.431 323.347 382.928 334.632C390.505 330.962 413.797 318.436 425.5 291.37C438.128 262.234 432.431 227.552 411.3 200.651H411.328Z" fill="url(#paint3_linear_67_21)"/>
<path d="M91.7725 198.913C88.3208 213.785 83.8307 242.562 92.8389 276.719C99.6863 302.682 111.669 321.609 120.172 332.894C112.595 329.224 89.303 316.698 77.6007 289.632C64.9723 260.496 70.6691 225.814 91.8006 198.913H91.7725Z" fill="url(#paint4_linear_67_21)"/>
<path d="M425.864 307.759C413.881 324.561 401.225 332.038 392.862 335.68C370.945 345.227 339.907 345.282 328.289 343.709C325.651 343.351 316.615 342.44 305.221 344.592C303.902 344.841 302.555 345.227 300.984 345.806C281.957 352.676 271.012 370.39 264.782 384.185C268.627 380.35 276.934 373.121 289.843 369.369C299.917 366.416 308.617 366.83 313.752 367.437C321.722 368.431 330.618 369.148 340.328 369.286C352.479 369.451 363.452 368.651 373.021 367.437C379.841 365.285 389.382 361.312 398.783 353.67C418.876 337.308 424.348 315.512 425.892 307.786L425.864 307.759Z" fill="url(#paint5_linear_67_21)"/>
<path d="M74.3184 306.186C86.3013 322.989 98.9577 330.466 107.32 334.108C129.238 343.654 160.275 343.709 171.893 342.137C174.531 341.778 183.568 340.867 194.961 343.019C196.28 343.268 197.627 343.654 199.199 344.233C218.225 351.104 229.17 368.817 235.4 382.612C231.555 378.777 223.249 371.548 210.34 367.796C200.265 364.844 191.566 365.258 186.43 365.865C178.46 366.858 169.564 367.575 159.854 367.713C147.703 367.879 136.73 367.079 127.161 365.865C120.342 363.713 110.8 359.739 101.399 352.097C81.306 335.736 75.8337 313.939 74.2903 306.214L74.3184 306.186Z" fill="url(#paint6_linear_67_21)"/>
<path d="M411.272 196.596C411.272 196.596 428.39 191.492 446.07 159.486C446.07 159.486 465.546 197.479 411.272 196.596Z" fill="url(#paint7_linear_67_21)"/>
<path d="M93.431 196.596C93.431 196.596 76.3126 191.492 58.6329 159.486C58.6329 159.486 39.1571 197.479 93.431 196.596Z" fill="url(#paint8_linear_67_21)"/>
<path d="M417.331 343.212C393.029 370.196 374.423 375.99 361.57 375.907C332.974 375.714 325.818 374.776 325.818 374.776C323.068 374.418 314.705 373.7 304.181 375.549C302.947 375.77 301.684 376.101 300.196 376.597C282.348 382.612 272.105 398.201 266.24 410.285C269.86 406.919 277.634 400.574 289.729 397.263C299.186 394.669 307.324 395.028 312.151 395.58C319.616 396.463 327.979 397.097 337.071 397.207C348.465 397.345 358.764 396.656 367.716 395.58C374.114 393.703 383.067 390.199 391.878 383.467C410.709 369.093 415.844 349.945 417.303 343.185L417.331 343.212Z" fill="url(#paint9_linear_67_21)"/>
<path d="M79.314 343.212C103.617 370.196 122.222 375.99 135.075 375.907C163.671 375.714 170.827 374.776 170.827 374.776C173.578 374.418 181.94 373.7 192.464 375.549C193.699 375.77 194.962 376.101 196.449 376.597C214.297 382.612 224.54 398.201 230.405 410.285C226.785 406.919 219.012 400.574 206.916 397.263C197.459 394.669 189.321 395.028 184.494 395.58C177.029 396.463 168.667 397.097 159.574 397.207C148.181 397.345 137.881 396.656 128.929 395.58C122.531 393.703 113.579 390.199 104.767 383.467C85.9368 369.093 80.8013 349.945 79.342 343.185L79.314 343.212Z" fill="url(#paint10_linear_67_21)"/>
<path d="M269.242 202.776C254.649 214.667 252.011 233.236 252.011 233.236C252.011 233.236 249.345 214.667 234.781 202.776C234.781 202.776 244.547 202.776 252.011 175.737C259.476 202.776 269.242 202.776 269.242 202.776Z" fill="url(#paint11_linear_67_21)"/>
<path d="M282.941 291.673C286.308 292.86 317.683 303.317 346.167 284.748C368.056 270.484 373.781 248.549 374.96 243.417C369.179 243.334 361.237 243.528 351.864 244.742C346.251 245.459 340.386 246.232 333.819 248.163C313.333 254.15 300.508 267.145 296.692 271.256C292.735 275.533 287.375 282.265 282.941 291.701V291.673Z" fill="url(#paint12_linear_67_21)"/>
<path d="M216.684 289.797C213.317 290.983 181.942 301.44 153.458 282.872C131.569 268.607 125.844 246.673 124.666 241.541C130.447 241.458 138.388 241.651 147.761 242.865C153.374 243.583 159.239 244.355 165.806 246.286C186.292 252.274 199.117 265.269 202.933 269.38C206.89 273.656 212.25 280.389 216.684 289.825V289.797Z" fill="url(#paint13_linear_67_21)"/>
<defs>
<linearGradient id="paint0_linear_67_21" x1="252.206" y1="266.625" x2="252.206" y2="378.279" gradientUnits="userSpaceOnUse">
<stop stop-color="#FEE140"/>
<stop offset="1" stop-color="#DA384C"/>
</linearGradient>
<linearGradient id="paint1_linear_67_21" x1="32" y1="176.068" x2="252.014" y2="176.068" gradientUnits="userSpaceOnUse">
<stop stop-color="#FEE140"/>
<stop offset="1" stop-color="#DA384C"/>
</linearGradient>
<linearGradient id="paint2_linear_67_21" x1="252.015" y1="176.068" x2="472.001" y2="176.068" gradientUnits="userSpaceOnUse">
<stop stop-color="#DA384C"/>
<stop offset="1" stop-color="#FEE140"/>
</linearGradient>
<linearGradient id="paint3_linear_67_21" x1="382.928" y1="267.642" x2="432.15" y2="267.642" gradientUnits="userSpaceOnUse">
<stop stop-color="#FEE140"/>
<stop offset="1" stop-color="#DA384C"/>
</linearGradient>
<linearGradient id="paint4_linear_67_21" x1="70.9217" y1="265.904" x2="120.144" y2="265.904" gradientUnits="userSpaceOnUse">
<stop stop-color="#FEE140"/>
<stop offset="1" stop-color="#DA384C"/>
</linearGradient>
<linearGradient id="paint5_linear_67_21" x1="264.782" y1="345.944" x2="425.864" y2="345.944" gradientUnits="userSpaceOnUse">
<stop stop-color="#DA384C"/>
<stop offset="1" stop-color="#FEE140"/>
</linearGradient>
<linearGradient id="paint6_linear_67_21" x1="74.3183" y1="344.399" x2="235.428" y2="344.399" gradientUnits="userSpaceOnUse">
<stop stop-color="#FEE140"/>
<stop offset="1" stop-color="#DA384C"/>
</linearGradient>
<linearGradient id="paint7_linear_67_21" x1="411.272" y1="178.055" x2="449.465" y2="178.055" gradientUnits="userSpaceOnUse">
<stop stop-color="#F89E4C"/>
<stop offset="1" stop-color="#CE2949"/>
</linearGradient>
<linearGradient id="paint8_linear_67_21" x1="55.2092" y1="178.055" x2="93.431" y2="178.055" gradientUnits="userSpaceOnUse">
<stop stop-color="#FEE140"/>
<stop offset="1" stop-color="#DA384C"/>
</linearGradient>
<linearGradient id="paint9_linear_67_21" x1="266.24" y1="376.763" x2="417.331" y2="376.763" gradientUnits="userSpaceOnUse">
<stop stop-color="#FEE140"/>
<stop offset="1" stop-color="#DA384C"/>
</linearGradient>
<linearGradient id="paint10_linear_67_21" x1="230.405" y1="376.763" x2="79.314" y2="376.763" gradientUnits="userSpaceOnUse">
<stop stop-color="#FEE140"/>
<stop offset="1" stop-color="#DA384C"/>
</linearGradient>
<linearGradient id="paint11_linear_67_21" x1="251.173" y1="228.331" x2="251.173" y2="178.707" gradientUnits="userSpaceOnUse">
<stop stop-color="#FEE140"/>
<stop offset="1" stop-color="#DA384C"/>
</linearGradient>
<linearGradient id="paint12_linear_67_21" x1="282.941" y1="269.546" x2="374.96" y2="269.546" gradientUnits="userSpaceOnUse">
<stop stop-color="#FEE140"/>
<stop offset="1" stop-color="#DA384C"/>
</linearGradient>
<linearGradient id="paint13_linear_67_21" x1="218.09" y1="294.496" x2="122.977" y2="240.737" gradientUnits="userSpaceOnUse">
<stop stop-color="#FEE140"/>
<stop offset="1" stop-color="#DA384C"/>
</linearGradient>
</defs>
</svg>
